<svg id="Layer_1" data-name="Layer 1" xmlns="http://www.w3.org/2000/svg" viewBox="0 0 128 128"><title>THINKING</title><path d="M128,46.249a19.622,19.622,0,0,0-5.627-13.585A23.5,23.5,0,0,0,88.8,5.893a55.141,55.141,0,0,0-49.6,0A23.509,23.509,0,0,0,5.627,32.664a19.214,19.214,0,0,0,0,27.171A23.5,23.5,0,0,0,39.2,86.606a55.143,55.143,0,0,0,49.6,0,23.508,23.508,0,0,0,33.571-26.771A19.624,19.624,0,0,0,128,46.249Zm-28.375,39.5a20,20,0,0,1-9.934-2.644A1.744,1.744,0,0,0,88,83.079a51.593,51.593,0,0,1-47.992,0,1.749,1.749,0,0,0-1.695.026A20.007,20.007,0,0,1,9.263,59.841,1.75,1.75,0,0,0,8.8,58.058a15.807,15.807,0,0,1,0-23.616,1.75,1.75,0,0,0,.465-1.783A20,20,0,0,1,38.309,9.394,1.745,1.745,0,0,0,40,9.42,51.593,51.593,0,0,1,88,9.42a1.745,1.745,0,0,0,1.7-.026,20.006,20.006,0,0,1,29.045,23.265,1.75,1.75,0,0,0,.465,1.783,15.807,15.807,0,0,1,0,23.616,1.75,1.75,0,0,0-.465,1.783A20.012,20.012,0,0,1,99.625,85.749Z"/><path d="M8.689,110.6a8.689,8.689,0,1,0,8.689,8.689A8.7,8.7,0,0,0,8.689,110.6Zm0,13.879a5.189,5.189,0,1,1,5.189-5.189A5.2,5.2,0,0,1,8.689,124.48Z"/><path d="M29.677,93.894a11.452,11.452,0,1,0,11.452,11.452A11.465,11.465,0,0,0,29.677,93.894Zm0,19.4a7.952,7.952,0,1,1,7.952-7.952A7.961,7.961,0,0,1,29.677,113.3Z"/><path d="M64,34.249a12,12,0,1,0,12,12A12.013,12.013,0,0,0,64,34.249Zm0,20.5a8.5,8.5,0,1,1,8.5-8.5A8.51,8.51,0,0,1,64,54.749Z"/><path d="M30.964,34.249a12,12,0,1,0,12,12A12.013,12.013,0,0,0,30.964,34.249Zm0,20.5a8.5,8.5,0,1,1,8.5-8.5A8.51,8.51,0,0,1,30.964,54.749Z"/><path d="M97.036,34.249a12,12,0,1,0,12,12A12.013,12.013,0,0,0,97.036,34.249Zm0,20.5a8.5,8.5,0,1,1,8.5-8.5A8.51,8.51,0,0,1,97.036,54.749Z"/></svg>